<?xml version="1.0" standalone="no"?>
<!DOCTYPE svg PUBLIC "-//W3C//DTD SVG 20010904//EN"
 "http://www.w3.org/TR/2001/REC-SVG-20010904/DTD/svg10.dtd">
<svg version="1.0" xmlns="http://www.w3.org/2000/svg"
 width="25.000000pt" height="24.000000pt" viewBox="0 0 25.000000 24.000000"
 preserveAspectRatio="xMidYMid meet">

<g transform="translate(0.000000,24.000000) scale(0.100000,-0.100000)"
fill="#000000" stroke="none">
<path d="M34 195 c-8 -33 6 -47 42 -43 25 3 29 7 29 33 0 26 -4 30 -32 33 -28
3 -33 -1 -39 -23z"/>
<path d="M144 207 c-3 -8 -4 -32 -2 -53 3 -37 5 -39 38 -39 l35 0 0 50 c0 49
-1 50 -33 53 -21 2 -34 -2 -38 -11z"/>
<path d="M35 107 c-4 -14 -5 -38 -3 -53 3 -26 7 -29 38 -29 l35 0 0 50 c0 49
-1 50 -32 53 -27 3 -33 -1 -38 -21z"/>
<path d="M144 76 c-13 -33 0 -51 36 -51 32 0 35 2 35 30 0 27 -4 30 -33 33
-22 2 -34 -2 -38 -12z"/>
</g>
</svg>
