<?xml version="1.0" standalone="no"?>
<!DOCTYPE svg PUBLIC "-//W3C//DTD SVG 20010904//EN"
 "http://www.w3.org/TR/2001/REC-SVG-20010904/DTD/svg10.dtd">
<svg version="1.0" xmlns="http://www.w3.org/2000/svg"
 width="25.000000pt" height="24.000000pt" viewBox="0 0 25.000000 24.000000"
 preserveAspectRatio="xMidYMid meet">

<g transform="translate(0.000000,24.000000) scale(0.100000,-0.100000)"
fill="#000000" stroke="none">
<path d="M34 206 c-12 -32 1 -51 37 -54 39 -3 55 14 44 49 -8 24 -73 27 -81 5z"/>
<path d="M140 165 l0 -56 38 3 37 3 0 50 0 50 -37 3 -38 3 0 -56z"/>
<path d="M34 116 c-3 -8 -4 -31 -2 -52 3 -36 5 -39 37 -42 20 -2 37 2 42 10
10 15 12 60 3 82 -8 20 -72 22 -80 2z"/>
<path d="M140 55 c0 -36 0 -36 38 -33 34 3 37 6 37 33 0 27 -3 30 -37 33 -38
3 -38 3 -38 -33z"/>
</g>
</svg>
