<?xml version="1.0" standalone="no"?>
<!DOCTYPE svg PUBLIC "-//W3C//DTD SVG 20010904//EN"
 "http://www.w3.org/TR/2001/REC-SVG-20010904/DTD/svg10.dtd">
<svg version="1.0" xmlns="http://www.w3.org/2000/svg"
 width="15.000000pt" height="10.000000pt" viewBox="0 0 15.000000 10.000000"
 preserveAspectRatio="xMidYMid meet">

<g transform="translate(0.000000,10.000000) scale(0.100000,-0.100000)"
fill="#000000" stroke="none">
<path d="M30 55 c21 -22 25 -23 40 -10 19 17 42 2 33 -21 -3 -9 2 -14 16 -14
16 0 21 6 21 25 0 16 -4 23 -13 19 -8 -3 -19 2 -26 10 -10 12 -17 13 -32 3
-14 -9 -21 -9 -31 1 -23 23 -31 12 -8 -13z"/>
</g>
</svg>
