<?xml version="1.0" encoding="utf-8"?>
<!-- Generator: Adobe Illustrator 23.0.1, SVG Export Plug-In . SVG Version: 6.00 Build 0)  -->
<svg version="1.1" id="Layer_2" xmlns="http://www.w3.org/2000/svg" xmlns:xlink="http://www.w3.org/1999/xlink" x="0px" y="0px"
	 viewBox="0 0 1080 1080" style="enable-background:new 0 0 1080 1080;" xml:space="preserve">
<style type="text/css">
	.st0{fill:#1C1C93;}
</style>
<g>
	<path class="st0" d="M618.06,429.63H443.17v47h129.5c3.59,0,6.5,2.91,6.5,6.5v0.5c0,75.11-60.89,136-136,136h0v47h17.95
		c41.31-3.33,78.71-20.56,107.5-47c3.66-3.36,7.18-6.87,10.55-10.52c29.79-32.23,48-75.33,48-122.68v-47.69
		C627.17,433.7,623.09,429.63,618.06,429.63L618.06,429.63z M588.94,527.63v-53.88c0-3.59-2.91-6.5-6.5-6.5h-56.27v-9.16h62.77v0
		h2.66c3.59,0,6.5,2.91,6.5,6.5l0,63.04H588.94z M607.57,527.63v-72.68c0-3.59-2.91-6.5-6.5-6.5h-74.9v-9.16h81.4h0.3h2.36
		c3.59,0,6.5,2.91,6.5,6.5l0,81.84H607.57z"/>
	<circle class="st0" cx="602.67" cy="643.13" r="23.5"/>
</g>
</svg>
