<?xml version="1.0" encoding="utf-8"?>
<!-- Generator: Adobe Illustrator 23.0.1, SVG Export Plug-In . SVG Version: 6.00 Build 0)  -->
<svg version="1.1" id="Layer_1" xmlns="http://www.w3.org/2000/svg" xmlns:xlink="http://www.w3.org/1999/xlink" x="0px" y="0px"
	 viewBox="0 0 145.1 47.5" style="enable-background:new 0 0 145.1 47.5;" xml:space="preserve">
<style type="text/css">
	.st0{fill:#FFFFFF;}
</style>
<title>FULL NEW</title>
<g>
	<g id="Layer_1-2">
		<path class="st0" d="M125.4,15.7v7.9c0,4.4,3.5,7.9,7.9,7.9v7.9c-8.7,0-15.8-7.1-15.8-15.8V7.8h15.8v7.9H125.4z"/>
		<path class="st0" d="M66.7,7.8v15.7c0,8.7-7,15.7-15.7,15.7c-8.7,0-15.7-7-15.7-15.7V7.8h7.8v15.7c0,4.3,3.5,7.8,7.8,7.8
			s7.8-3.5,7.8-7.8c0,0,0,0,0,0V7.8H66.7z"/>
		<path class="st0" d="M99.8,16.1c-1.4-2.4-3.3-4.3-5.7-5.7c-4.8-2.8-10.8-2.8-15.6,0c-2.4,1.4-4.3,3.4-5.7,5.7
			c-1.4,2.4-2.1,5.1-2.1,7.8v23.6h7.8v-10c4.8,2.8,10.8,2.8,15.6,0c2.4-1.4,4.3-3.4,5.7-5.7C102.6,26.9,102.6,21,99.8,16.1
			L99.8,16.1z M78.4,23.9c0-4.3,3.5-7.8,7.8-7.8c4.3,0,7.8,3.5,7.8,7.8s-3.5,7.8-7.8,7.8l0,0C81.9,31.7,78.4,28.2,78.4,23.9z"/>
		<path class="st0" d="M113.6,29v10.4h-7.8V7.8h7.8V29z"/>
		<circle class="st0" cx="141.2" cy="35.3" r="3.9"/>
	</g>
</g>
<path class="st0" d="M31.6,9.9V1.9c0-0.9-0.7-1.5-1.5-1.5H0.5v8h21.9c0.6,0,1.1,0.5,1.1,1.1v0.1c0,12.7-10.3,23-23,23h0v8h3
	c7-0.6,13.3-3.5,18.2-8c0.6-0.6,1.2-1.2,1.8-1.8C28.5,25.2,31.6,17.9,31.6,9.9z M14.5,1.9h13.8h0.1h0.4c0.6,0,1.1,0.5,1.1,1.1v13.8
	h-1.6V4.6c0-0.6-0.5-1.1-1.1-1.1H14.5V1.9z M14.5,6.7V5.1h10.6h0.5c0.6,0,1.1,0.5,1.1,1.1l0,10.7h-1.6V7.8c0-0.6-0.5-1.1-1.1-1.1
	H14.5z"/>
</svg>
